<?xml version="1.0" encoding="UTF-8"?>
<svg id="_レイヤー_1" data-name="レイヤー_1" xmlns="http://www.w3.org/2000/svg" viewBox="0 0 1018.68 676.65">
  <defs>
    <style>
      .cls-1 {
        fill: #231815;
        stroke: #231815;
        stroke-miterlimit: 10;
        stroke-width: 30px;
      }
    </style>
  </defs>
  <path class="cls-1" d="M1002.57,653.3l-1.94,3.74c-2.28,4.4-7.33,5.91-11.28,3.37L19.13,35.93c-3.95-2.54-5.3-8.17-3.02-12.58l1.94-3.74c2.28-4.4,7.33-5.91,11.28-3.37l970.22,624.49c3.95,2.54,5.3,8.17,3.02,12.58Z"/>
  <path class="cls-1" d="M18.05,657.05l-1.94-3.74c-2.28-4.4-.93-10.03,3.02-12.58L989.35,16.24c3.95-2.54,9-1.03,11.28,3.37l1.94,3.74c2.28,4.4.93,10.03-3.02,12.58L29.33,660.42c-3.95,2.54-9,1.03-11.28-3.37Z"/>
</svg>